<svg width="474" height="173" viewBox="0 0 474 173" fill="none" xmlns="http://www.w3.org/2000/svg">
<path d="M474 97.1075H448.735C449.138 102.757 452.681 105.582 459.363 105.582C463.624 105.582 467.369 104.784 470.596 102.757V111.206C467.016 113.132 462.364 114.094 456.64 114.094C450.386 114.094 445.533 112.359 442.078 108.888C438.624 105.392 436.896 100.528 436.896 94.2953C436.896 87.835 438.762 82.7174 442.494 78.9426C446.226 75.1677 450.815 73.2803 456.262 73.2803C461.91 73.2803 466.272 74.965 469.348 78.3345C472.449 81.704 474 86.2769 474 92.0532V97.1075ZM462.918 89.7351C462.918 84.1615 460.674 81.3747 456.186 81.3747C454.27 81.3747 452.605 82.1727 451.193 83.7688C449.807 85.3649 448.962 87.3537 448.659 89.7351H462.918Z" fill="white"/>
<path d="M433.185 84.6711C431.708 83.88 429.984 83.6921 428.014 83.6921C425.344 83.6921 423.257 84.6618 421.754 86.6013C420.251 88.5152 419.499 91.131 419.499 94.4485L419.499 114.094H407.212L407.212 73.3545H419.499L419.499 81.2423H419.654C421.598 75.9343 425.098 73.2803 430.152 73.2803C431.448 73.2803 432.459 73.4334 433.185 73.7396V84.6711Z" fill="white"/>
<path d="M399.792 114.094H389.033L389.033 107.558H388.889C386.418 111.916 382.76 114.094 377.914 114.094C374.339 114.094 371.521 113.03 369.458 110.902C367.418 108.749 366.399 105.886 366.399 102.314C366.399 94.764 370.633 90.4065 379.101 89.2411L389.105 87.835C389.105 83.5788 386.922 81.4507 382.556 81.4507C378.166 81.4507 373.992 81.856 370.033 84.6175V76.5484C371.617 75.6871 373.776 74.927 376.51 74.2683C379.269 73.6096 381.776 73.2803 384.031 73.2803C394.539 73.2803 399.792 78.8159 399.792 89.8871L399.792 114.094ZM389.105 97.3355V94.7134L382.412 95.6254C378.718 96.1321 376.87 97.8929 376.87 100.908C376.87 102.276 377.314 103.403 378.202 104.29C379.113 105.151 380.337 105.582 381.872 105.582C384.007 105.582 385.746 104.809 387.09 103.264C388.433 101.693 389.105 99.717 389.105 97.3355Z" fill="white"/>
<path d="M338.164 94.4616V114.094H325.585V58.4385H345.291C359.363 58.4385 366.399 65.037 366.399 76.4183C366.399 81.7977 364.374 86.156 360.324 89.4932C356.299 92.8055 350.912 94.4616 344.162 94.4616H338.164ZM338.164 68.6108V85.3092H343.11C349.809 85.3092 353.158 82.495 353.158 76.8666C353.158 71.3627 349.809 68.6108 343.11 68.6108H338.164Z" fill="white"/>
<path d="M303.322 114.094H291.822V91.1993C291.822 85.4703 289.826 82.6059 285.834 82.6059C283.935 82.6059 282.39 83.4665 281.197 85.1878C280.005 86.909 279.408 89.0542 279.408 91.6232V114.094H267.871V90.9681C267.871 85.3933 265.911 82.6059 261.993 82.6059C260.021 82.6059 258.439 83.428 257.246 85.0721C256.078 86.7163 255.494 88.9514 255.494 91.7773V114.094H243.957V73.2803H255.494V80.4093H255.64C256.833 78.3027 258.5 76.5943 260.642 75.2841C262.808 73.9482 265.169 73.2803 267.725 73.2803C273.007 73.2803 276.621 75.7337 278.568 80.6406C281.416 75.7337 285.603 73.2803 291.128 73.2803C299.258 73.2803 303.322 78.5725 303.322 89.1569V114.094Z" fill="white"/>
<path d="M215.944 114.094C209.657 114.094 204.709 112.283 201.099 108.66C197.514 105.012 195.721 100.072 195.721 93.8393C195.721 87.4043 197.588 82.3754 201.32 78.7526C205.053 75.1044 210.099 73.2803 216.46 73.2803C222.722 73.2803 227.633 75.1044 231.194 78.7526C234.755 82.3754 236.535 87.1763 236.535 93.1553C236.535 99.6156 234.693 104.721 231.01 108.47C227.351 112.22 222.329 114.094 215.944 114.094ZM216.239 82.4767C213.488 82.4767 211.352 83.4521 209.829 85.4029C208.307 87.3537 207.545 90.1151 207.545 93.6873C207.545 101.161 210.468 104.898 216.312 104.898C221.887 104.898 224.674 101.06 224.674 93.3833C224.674 86.1123 221.862 82.4767 216.239 82.4767Z" fill="white"/>
<path d="M192.012 111.242C187.843 113.143 182.401 114.094 175.683 114.094C166.922 114.094 160.032 111.667 155.014 106.813C149.996 101.96 147.487 95.4922 147.487 87.4109C147.487 78.8042 150.302 71.8238 155.93 66.4697C161.585 61.1155 168.913 58.4385 177.914 58.4385C183.489 58.4385 188.189 59.1015 192.012 60.4275V72.0991C188.189 69.9474 183.834 68.8716 178.949 68.8716C173.586 68.8716 169.258 70.4603 165.966 73.6377C162.674 76.8152 161.028 81.1185 161.028 86.5477C161.028 91.7518 162.581 95.905 165.687 99.0074C168.794 102.085 172.975 103.623 178.232 103.623C183.25 103.623 187.843 102.473 192.012 100.171V111.242Z" fill="white"/>
<path d="M72.3524 -4.13573e-06L72.3524 94.6145L50.0902 114.094L119.66 114.094L119.66 47.5045L72.3524 -4.13573e-06Z" fill="white"/>
<path d="M47.3072 172.532L47.3072 77.9177L69.5695 58.4384L-1.41299e-05 58.4384L-8.30596e-06 125.028L47.3072 172.532Z" fill="white"/>
</svg>
