<svg width="330" height="282" viewBox="0 0 330 282" fill="none" xmlns="http://www.w3.org/2000/svg">
<path d="M330 264.552H304.465C304.873 270.262 308.453 273.117 315.206 273.117C319.513 273.117 323.298 272.311 326.56 270.262V278.802C322.941 280.748 318.239 281.721 312.454 281.721C306.134 281.721 301.228 279.967 297.737 276.459C294.246 272.925 292.5 268.009 292.5 261.71C292.5 255.181 294.386 250.009 298.157 246.193C301.929 242.378 306.567 240.471 312.072 240.471C317.78 240.471 322.189 242.173 325.298 245.579C328.433 248.984 330 253.606 330 259.444V264.552ZM318.8 257.101C318.8 251.468 316.532 248.652 311.995 248.652C310.059 248.652 308.377 249.458 306.95 251.071C305.548 252.684 304.694 254.694 304.388 257.101H318.8Z" fill="white"/>
<path d="M288.749 251.983C287.255 251.184 285.513 250.994 283.522 250.994C280.824 250.994 278.715 251.974 277.196 253.934C275.676 255.868 274.916 258.512 274.916 261.865L274.916 281.721H262.499L262.499 240.546H274.916L274.916 248.518H275.074C277.038 243.153 280.575 240.471 285.684 240.471C286.994 240.471 288.015 240.625 288.749 240.935V251.983Z" fill="white"/>
<path d="M254.999 281.721H244.125L244.125 275.115H243.98C241.483 279.519 237.785 281.721 232.887 281.721C229.275 281.721 226.426 280.645 224.341 278.494C222.28 276.318 221.25 273.425 221.25 269.814C221.25 262.184 225.529 257.78 234.088 256.602L244.198 255.181C244.198 250.879 241.992 248.728 237.579 248.728C233.142 248.728 228.923 249.138 224.923 251.929V243.774C226.523 242.903 228.705 242.135 231.469 241.469C234.257 240.804 236.791 240.471 239.07 240.471C249.69 240.471 254.999 246.065 254.999 257.255L254.999 281.721ZM244.198 264.783V262.133L237.433 263.054C233.7 263.567 231.833 265.346 231.833 268.393C231.833 269.776 232.281 270.915 233.178 271.811C234.1 272.682 235.336 273.117 236.888 273.117C239.046 273.117 240.804 272.336 242.161 270.774C243.519 269.187 244.198 267.19 244.198 264.783Z" fill="white"/>
<path d="M192.713 261.879V281.721H180V225.471H199.916C214.138 225.471 221.249 232.14 221.249 243.643C221.249 249.079 219.203 253.484 215.109 256.857C211.042 260.205 205.597 261.879 198.775 261.879H192.713ZM192.713 235.752V252.628H197.712C204.482 252.628 207.867 249.784 207.867 244.096C207.867 238.533 204.482 235.752 197.712 235.752H192.713Z" fill="white"/>
<path d="M157.499 281.721H145.876V258.581C145.876 252.791 143.859 249.896 139.824 249.896C137.905 249.896 136.343 250.766 135.138 252.505C133.932 254.245 133.33 256.413 133.33 259.01V281.721H121.669V258.347C121.669 252.713 119.689 249.896 115.728 249.896C113.736 249.896 112.137 250.727 110.931 252.389C109.75 254.05 109.16 256.309 109.16 259.165V281.721H97.4995V240.471H109.16V247.676H109.308C110.513 245.547 112.198 243.82 114.363 242.496C116.552 241.146 118.939 240.471 121.522 240.471C126.86 240.471 130.513 242.95 132.481 247.91C135.359 242.95 139.59 240.471 145.175 240.471C153.391 240.471 157.499 245.819 157.499 256.517V281.721Z" fill="white"/>
<path d="M69.1876 281.721C62.8338 281.721 57.8327 279.89 54.1842 276.228C50.5606 272.541 48.7488 267.548 48.7488 261.249C48.7488 254.746 50.6351 249.663 54.4076 246.001C58.1802 242.314 63.2806 240.471 69.7088 240.471C76.0378 240.471 81.0017 242.314 84.6005 246.001C88.1993 249.663 89.9987 254.515 89.9987 260.558C89.9987 267.087 88.1373 272.247 84.4144 276.036C80.7163 279.826 75.6407 281.721 69.1876 281.721ZM69.4854 249.765C66.7057 249.765 64.5464 250.751 63.0076 252.723C61.4688 254.694 60.6994 257.485 60.6994 261.096C60.6994 268.649 63.6529 272.426 69.5599 272.426C75.1939 272.426 78.0109 268.547 78.0109 260.788C78.0109 253.44 75.1691 249.765 69.4854 249.765Z" fill="white"/>
<path d="M45 278.838C40.7871 280.76 35.2862 281.721 28.4973 281.721C19.6422 281.721 12.6789 279.268 7.60733 274.362C2.53578 269.457 0 262.92 0 254.753C0 246.054 2.84436 238.999 8.53309 233.588C14.2486 228.176 21.6547 225.471 30.7513 225.471C36.3864 225.471 41.1359 226.141 45 227.481V239.277C41.1359 237.103 36.7352 236.015 31.7978 236.015C26.3774 236.015 22.0036 237.621 18.6762 240.832C15.3488 244.044 13.6851 248.393 13.6851 253.88C13.6851 259.14 15.2549 263.337 18.3944 266.473C21.534 269.583 25.7603 271.138 31.0733 271.138C36.1449 271.138 40.7871 269.975 45 267.649V278.838Z" fill="white"/>
<path d="M46.7676 64.8372L176.442 64.8372L203.14 95.3488L203.14 -1.25306e-05L111.875 -8.53783e-06L46.7676 64.8372Z" fill="white"/>
<path d="M283.233 99.1638L153.558 99.1638L126.861 68.6522L126.861 164.001L218.125 164.001L283.233 99.1638Z" fill="white"/>
</svg>
